<svg width="104" height="104" viewBox="0 0 104 104" fill="none" xmlns="http://www.w3.org/2000/svg">
<rect width="104" height="104" rx="12" fill="#EFF6FC"/>
<g clip-path="url(#clip0)">
<path d="M70.7747 80H30.2535C28.4789 80 27 78.5417 27 76.7917V27.2083C27 25.4583 28.4789 24 30.2535 24H70.7747C72.5493 24 74.0282 25.4583 74.0282 27.2083V76.7917C74.0282 78.5417 72.5493 80 70.7747 80Z" fill="#3CACD7"/>
<path d="M67.5208 37.708H42.6757C41.4926 37.708 40.9011 36.833 40.9011 35.958V31.583C40.6053 30.708 41.4926 29.833 42.6757 29.833H67.5208C68.7039 29.833 69.2954 30.708 69.2954 31.583V35.958C69.2954 37.1247 68.4081 37.708 67.5208 37.708Z" fill="#EFF6FC"/>
<path d="M53.0281 47.041H42.676C41.4929 47.041 40.9014 46.166 40.9014 45.291V40.916C40.9014 39.7494 41.7887 39.166 42.676 39.166H53.3239C54.507 39.166 55.0986 40.041 55.0986 40.916V45.291C55.0986 46.166 54.2112 47.041 53.0281 47.041Z" fill="#EFF6FC"/>
<path d="M37.3519 37.708H32.9153C31.7322 37.708 31.1406 36.833 31.1406 35.958V31.583C31.1406 30.708 32.0279 29.833 32.9153 29.833H37.3519C38.535 29.833 39.1265 30.708 39.1265 31.583V35.958C39.1265 37.1247 38.2392 37.708 37.3519 37.708Z" fill="#EFF6FC"/>
<path d="M37.3519 47.041H32.9153C31.7322 47.041 31.1406 46.166 31.1406 45.291V40.916C31.1406 39.7494 32.0279 39.166 32.9153 39.166H37.3519C38.535 39.166 39.1265 40.041 39.1265 40.916V45.291C39.1265 46.166 38.2392 47.041 37.3519 47.041Z" fill="#EFF6FC"/>
<path d="M37.3519 56.083H32.9153C31.7322 56.083 31.1406 55.208 31.1406 54.333V49.958C31.1406 48.7913 32.0279 48.208 32.9153 48.208H37.3519C38.535 48.208 39.1265 49.083 39.1265 49.958V54.333C39.1265 55.208 38.2392 56.083 37.3519 56.083Z" fill="#EFF6FC"/>
<path d="M37.3519 65.125H32.9153C31.7322 65.125 31.1406 64.25 31.1406 63.375V59C31.1406 57.8333 32.0279 57.25 32.9153 57.25H37.3519C38.535 57.25 39.1265 58.125 39.1265 59V63.375C39.1265 64.5417 38.2392 65.125 37.3519 65.125Z" fill="#EFF6FC"/>
<path d="M37.3519 74.458H32.9153C31.7322 74.458 31.1406 73.583 31.1406 72.708V68.333C31.1406 67.1663 32.0279 66.583 32.9153 66.583H37.3519C38.535 66.583 39.1265 67.458 39.1265 68.333V72.708C39.1265 73.583 38.2392 74.458 37.3519 74.458Z" fill="#EFF6FC"/>
<path d="M50.9578 43.8329L51.8451 51.1246C51.8451 51.4163 51.8451 51.7079 52.1409 51.7079L68.1128 72.4163C68.7043 72.9996 69.2959 72.9996 69.8874 72.7079L75.8029 68.0413C76.3944 67.4579 76.3945 66.8746 76.0987 66.2913L60.1268 45.5829C60.1268 45.2913 59.8311 45.2913 59.5353 45.2913L52.4367 42.3746C51.8451 42.0829 50.662 42.9579 50.9578 43.8329Z" fill="#FCBC41"/>
</g>
<defs>
<clipPath id="clip0">
<rect width="49.6901" height="56" fill="white" transform="translate(27 24)"/>
</clipPath>
</defs>
</svg>
