<svg width="105" height="104" viewBox="0 0 105 104" fill="none" xmlns="http://www.w3.org/2000/svg">
<rect x="0.5" width="104" height="104" rx="12" fill="#EFF6FC"/>
<g clip-path="url(#clip0)">
<path d="M19 72.6792V31.3208C19 29.5094 20.4857 28 22.2686 28H82.5886C84.3714 28 85.8571 29.5094 85.8571 31.3208V72.6792C85.8571 74.4906 84.3714 76 82.5886 76H22.2686C20.4857 76 19 74.4906 19 72.6792Z" fill="#3CACD7"/>
<path d="M76.6455 50.6416H68.6226V47.6227C68.6226 46.7171 68.0284 46.1133 67.1369 46.1133C66.2455 46.1133 65.6512 46.7171 65.6512 47.6227V50.3397H49.9026V47.6227C49.9026 46.7171 49.3083 46.1133 48.4169 46.1133C47.5255 46.1133 46.9312 47.0189 46.9312 47.6227V50.3397H30.8855V47.6227C30.8855 47.0189 30.2912 46.1133 29.3998 46.1133C28.5083 46.1133 27.9141 47.0189 27.9141 47.6227V52.151C27.9141 53.0567 28.5083 53.6604 29.3998 53.6604H37.4226V57.585C37.4226 58.4906 38.0169 59.0944 38.9083 59.0944C39.7998 59.0944 40.3941 58.1888 40.3941 57.585V53.6604H56.1426V57.585C56.1426 58.4906 56.7369 59.0944 57.6283 59.0944C58.5198 59.0944 59.1141 58.4906 59.1141 57.585V53.6604H74.8626V57.585C74.8626 58.4906 75.4569 59.0944 76.3483 59.0944C77.2398 59.0944 77.8341 58.4906 77.8341 57.585V52.151C78.1312 51.2454 77.5369 50.6416 76.6455 50.6416Z" fill="#FCBC41"/>
<path d="M32.0741 48.5276H27.0227C25.8341 48.5276 24.6455 47.32 24.6455 46.1125V40.9804C24.6455 39.7728 25.5369 38.8672 26.7255 38.8672H31.7769C32.9655 38.8672 33.8569 39.7728 33.8569 40.9804V46.1125C34.1541 47.32 33.2627 48.5276 32.0741 48.5276Z" fill="#EFF6FC"/>
<path d="M50.7935 48.5276H45.7421C44.5535 48.5276 43.6621 47.32 43.6621 46.1125V40.9804C43.6621 39.7728 44.5535 38.8672 45.7421 38.8672H50.7935C51.9821 38.8672 52.8735 39.7728 52.8735 40.9804V46.1125C52.8735 47.32 51.9821 48.5276 50.7935 48.5276Z" fill="#EFF6FC"/>
<path d="M69.8111 48.5276H64.7597C63.5711 48.5276 62.6797 47.6219 62.6797 46.4144V40.9804C62.6797 39.7728 63.5711 38.8672 64.7597 38.8672H69.8111C70.9997 38.8672 71.8911 39.7728 71.8911 40.9804V46.1125C71.8911 47.32 70.9997 48.5276 69.8111 48.5276Z" fill="#EFF6FC"/>
<path d="M41.2847 65.4328H36.2333C35.0447 65.4328 34.1533 64.5272 34.1533 63.3196V57.8857C34.1533 56.6781 35.0447 55.7725 36.2333 55.7725H41.2847C42.4733 55.7725 43.3647 56.6781 43.3647 57.8857V63.0177C43.6619 64.2253 42.4733 65.4328 41.2847 65.4328Z" fill="#EFF6FC"/>
<path d="M60.3023 65.4328H55.2509C54.0623 65.4328 53.1709 64.5272 53.1709 63.3196V57.8857C53.1709 56.6781 54.0623 55.7725 55.2509 55.7725H60.3023C61.4909 55.7725 62.3823 56.6781 62.3823 57.8857V63.0177C62.3823 64.2253 61.4909 65.4328 60.3023 65.4328Z" fill="#EFF6FC"/>
<path d="M63.8687 63.0186L74.8629 59.9997C76.3487 59.6978 77.5372 60.9054 77.2401 62.4148L74.2687 73.5846C73.9715 75.094 72.1887 75.6978 71.0001 74.4903L68.3258 71.7733L65.0572 75.094C64.4629 75.6978 63.2744 75.6978 62.6801 75.094C62.0858 74.4903 62.0858 73.2827 62.6801 72.6789L65.9487 69.3582L63.2744 66.6412C62.0858 65.4337 62.3829 63.3204 63.8687 63.0186Z" fill="#EFF6FC"/>
</g>
<defs>
<clipPath id="clip0">
<rect width="66.8571" height="48" fill="white" transform="translate(19 28)"/>
</clipPath>
</defs>
</svg>
