<svg width="104" height="104" viewBox="0 0 104 104" fill="none" xmlns="http://www.w3.org/2000/svg">
<rect width="104" height="104" rx="12" fill="#EFF6FC"/>
<g clip-path="url(#clip0)">
<path d="M52.2502 54.0896C60.4908 54.0896 67.1712 47.3538 67.1712 39.0448C67.1712 30.7358 60.4908 24 52.2502 24C44.0095 24 37.3291 30.7358 37.3291 39.0448C37.3291 47.3538 44.0095 54.0896 52.2502 54.0896Z" fill="#3CACD7"/>
<path d="M61.3682 40.4373H52.2497C51.4208 40.4373 50.8682 39.8801 50.8682 39.0443V28.7358C50.8682 27.9 51.4208 27.3428 52.2497 27.3428C53.0787 27.3428 53.6313 27.9 53.6313 28.7358V37.6512H61.3682C62.1971 37.6512 62.7497 38.2084 62.7497 39.0443C62.7497 39.8801 62.1971 40.4373 61.3682 40.4373Z" fill="#EFF6FC"/>
<path d="M74.0785 66.348H66.618V63.8406C66.618 63.0048 66.0654 62.4476 65.2364 62.4476C64.4075 62.4476 63.8549 63.0048 63.8549 63.8406V66.348H49.2101V63.8406C49.2101 63.0048 48.6575 62.4476 47.8285 62.4476C46.9996 62.4476 46.447 63.0048 46.447 63.562V66.0694H31.8022V63.562C31.8022 62.7262 31.2496 62.1689 30.4206 62.1689C29.5917 62.1689 29.0391 63.0048 29.0391 63.562V67.4625C29.0391 68.2983 29.5917 68.8555 30.4206 68.8555H37.8812V72.4774C37.8812 73.3132 38.4338 73.8704 39.2627 73.8704C40.0917 73.8704 40.6443 73.3132 40.6443 72.4774V68.8555H55.2891V72.4774C55.2891 73.3132 55.8417 73.8704 56.6706 73.8704C57.4996 73.8704 58.0522 73.3132 58.0522 72.4774V68.8555H72.697V72.4774C72.697 73.3132 73.2496 73.8704 74.0785 73.8704C74.9075 73.8704 75.4601 73.3132 75.4601 72.4774V67.4625C75.4601 66.9053 74.9075 66.348 74.0785 66.348Z" fill="#FCBC41"/>
<path d="M32.6316 64.3978H27.9342C26.8289 64.3978 26 63.562 26 62.4476V57.4327C26 56.3182 26.8289 55.4824 27.9342 55.4824H32.6316C33.7368 55.4824 34.5658 56.3182 34.5658 57.4327V62.169C34.8421 63.2834 33.7368 64.3978 32.6316 64.3978Z" fill="#3CACD7"/>
<path d="M50.3161 64.3978H45.6188C44.5135 64.3978 43.6846 63.562 43.6846 62.4476V57.4327C43.6846 56.3182 44.5135 55.4824 45.6188 55.4824H50.3161C51.4214 55.4824 52.2504 56.3182 52.2504 57.4327V62.169C52.2504 63.2834 51.4214 64.3978 50.3161 64.3978Z" fill="#3CACD7"/>
<path d="M67.7234 64.3978H63.026C61.9207 64.3978 61.0918 63.562 61.0918 62.4476V57.4327C61.0918 56.3182 61.9207 55.4824 63.026 55.4824H67.7234C68.8286 55.4824 69.6576 56.3182 69.6576 57.4327V62.169C69.9339 63.2834 68.8286 64.3978 67.7234 64.3978Z" fill="#3CACD7"/>
<path d="M41.4734 80.0001H36.776C35.6707 80.0001 34.8418 79.1643 34.8418 78.0498V73.3135C34.8418 72.1991 35.6707 71.3633 36.776 71.3633H41.4734C42.5786 71.3633 43.4076 72.1991 43.4076 73.3135V78.0498C43.4076 78.8857 42.5786 80.0001 41.4734 80.0001Z" fill="#3CACD7"/>
<path d="M59.1579 80.0001H54.4606C53.3553 80.0001 52.5264 79.1643 52.5264 78.0498V73.3135C52.5264 72.1991 53.3553 71.3633 54.4606 71.3633H59.1579C60.2632 71.3633 61.0922 72.1991 61.0922 73.3135V78.0498C61.0922 78.8857 60.2632 80.0001 59.1579 80.0001Z" fill="#3CACD7"/>
<path d="M76.5661 80.0001H71.8688C70.7635 80.0001 69.9346 79.1643 69.9346 78.0498V73.3135C69.9346 72.1991 70.7635 71.3633 71.8688 71.3633H76.5661C77.6714 71.3633 78.5004 72.1991 78.5004 73.3135V78.0498C78.5004 78.8857 77.6714 80.0001 76.5661 80.0001Z" fill="#3CACD7"/>
<path d="M72.9737 45.7311L64.6842 43.5023C63.5789 43.2237 62.4737 44.3381 62.75 45.4525L64.9605 53.8107C65.2368 54.9252 66.6184 55.2038 67.4473 54.368L69.6579 52.1391L72.1447 54.6466C72.6973 55.2038 73.5263 55.2038 73.8026 54.6466C74.0789 54.0893 74.3552 53.2535 73.8026 52.9749L71.3158 50.4675L73.5263 48.2386C74.3552 47.4028 74.0789 46.0097 72.9737 45.7311Z" fill="#FCBC41"/>
</g>
<defs>
<clipPath id="clip0">
<rect width="52.5" height="56" fill="white" transform="translate(26 24)"/>
</clipPath>
</defs>
</svg>
