<svg width="105" height="104" viewBox="0 0 105 104" fill="none" xmlns="http://www.w3.org/2000/svg">
<rect x="0.5" width="104" height="104" rx="12" fill="#EFF6FC"/>
<g clip-path="url(#clip0)">
<path d="M25 65V30.75C25 29.25 26.2418 28 27.7319 28H78.1487C79.6388 28 80.8806 29.25 80.8806 30.75V65C80.8806 66.5 79.6388 67.75 78.1487 67.75H27.7319C26.2418 67.75 25 66.5 25 65Z" fill="#3CACD7"/>
<path d="M46.3589 74.2501L49.5875 62.2501C50.0842 60.7501 48.5941 59.2501 46.8556 59.5001L34.9344 62.7501C33.4442 63.2501 32.6992 65.2501 33.941 66.2501L36.9213 69.2501L33.6926 73.0001C32.9475 73.7501 32.9475 74.7501 33.6926 75.5001C34.4377 76.2501 35.4311 76.2501 36.1762 75.5001L39.6532 72.0001L42.6335 75.0001C43.8753 76.2501 45.8621 75.7501 46.3589 74.2501Z" fill="#FCBC41"/>
<path d="M72.1878 46.75H65.4821V44.25C65.4821 43.5 64.9854 43 64.2403 43C63.4952 43 62.9985 43.5 62.9985 44.25V46.5H49.8355V44.25C49.8355 43.5 49.0905 43 48.5938 43C48.097 43 47.352 43.5 47.352 44.25V46.5H33.9406V44.25C33.9406 43.5 33.4439 43 32.6988 43C31.9537 43 31.457 43.5 31.457 44.25V48C31.457 48.75 31.9537 49.25 32.6988 49.25H39.4045V52.5C39.4045 53.25 39.9012 53.75 40.6463 53.75C41.3914 53.75 41.8881 53 41.8881 52.25V49.25H55.0511V52.5C55.0511 53.25 55.5478 53.75 56.2929 53.75C57.0379 53.75 57.5346 53.25 57.5346 52.5V49.25H70.6976V52.5C70.6976 53.25 71.1943 53.75 71.9394 53.75C72.6845 53.75 73.1812 53.25 73.1812 52.5V48C73.4296 47.25 72.9329 46.75 72.1878 46.75Z" fill="#FCBC41"/>
<path d="M34.9345 44.75H30.7125C29.719 44.75 28.7256 44 28.7256 43V38.75C28.7256 37.75 29.4707 37 30.4641 37H34.9345C35.928 37 36.673 37.75 36.673 38.75V43C36.673 44 35.928 44.75 34.9345 44.75Z" fill="#EFF6FC"/>
<path d="M50.5807 44.75H46.3586C45.3652 44.75 44.6201 44 44.6201 43V38.75C44.6201 37.75 45.3652 37 46.3586 37H50.5807C51.5741 37 52.3192 37.75 52.3192 38.75V43C52.5676 44 51.5741 44.75 50.5807 44.75Z" fill="#EFF6FC"/>
<path d="M66.4762 44.75H62.2541C61.2607 44.75 60.5156 44 60.5156 43V38.75C60.5156 37.75 61.2607 37 62.2541 37H66.4762C67.4697 37 68.2147 37.75 68.2147 38.75V43C68.2147 44 67.4697 44.75 66.4762 44.75Z" fill="#EFF6FC"/>
<path d="M42.6334 58.75H38.4114C37.4179 58.75 36.6729 58 36.6729 57V52.75C36.6729 51.75 37.4179 51 38.4114 51H42.6334C43.6269 51 44.372 51.75 44.372 52.75V57C44.6203 58 43.6269 58.75 42.6334 58.75Z" fill="#EFF6FC"/>
<path d="M58.529 58.75H54.3069C53.3134 58.75 52.5684 58 52.5684 57V52.75C52.5684 51.75 53.3134 51 54.3069 51H58.529C59.5224 51 60.2675 51.75 60.2675 52.75V57C60.2675 58 59.5224 58.75 58.529 58.75Z" fill="#EFF6FC"/>
<path d="M74.1754 58.75H69.9534C68.9599 58.75 68.2148 58 68.2148 57V52.75C68.2148 51.75 68.9599 51 69.9534 51H74.1754C75.1689 51 75.9139 51.75 75.9139 52.75V57C76.1623 58 75.1689 58.75 74.1754 58.75Z" fill="#EFF6FC"/>
</g>
<defs>
<clipPath id="clip0">
<rect width="55.8806" height="48" fill="white" transform="translate(25 28)"/>
</clipPath>
</defs>
</svg>
