<svg width="104" height="104" viewBox="0 0 104 104" fill="none" xmlns="http://www.w3.org/2000/svg">
<rect width="104" height="104" rx="12" fill="#EFF6FC"/>
<g clip-path="url(#clip0)">
<path d="M19 71.5151V30.4485C19 27.0545 22.0762 24 25.4941 24H78.1309C81.8906 24 84.625 27.0545 84.625 30.4485V71.5151C84.625 75.2485 81.5488 77.9636 78.1309 77.9636H25.4941C22.0762 77.9636 19 75.2485 19 71.5151Z" fill="#3CACD7"/>
<path d="M41.5586 50.1335H35.748C34.3809 50.1335 33.3555 49.1153 33.3555 47.7578V41.9881C33.3555 40.6305 34.3809 39.6123 35.748 39.6123H41.5586C42.9258 39.6123 43.9512 40.6305 43.9512 41.9881V47.7578C44.293 49.1153 42.9258 50.1335 41.5586 50.1335Z" fill="#EFF6FC"/>
<path d="M41.5586 62.6907H35.748C34.3809 62.6907 33.3555 61.6725 33.3555 60.3149V54.2058C33.3555 52.8483 34.3809 51.8301 35.748 51.8301H41.5586C42.9258 51.8301 43.9512 52.8483 43.9512 54.2058V59.9755C44.293 61.3331 42.9258 62.6907 41.5586 62.6907Z" fill="#EFF6FC"/>
<path d="M54.5469 50.1335H49.0781C47.3691 50.1335 46.3438 49.1153 46.3438 47.7578V41.9881C46.3438 40.6305 47.3691 39.6123 48.7363 39.6123H54.5469C55.9141 39.6123 56.9395 40.6305 56.9395 41.9881V47.7578C57.2812 49.1153 56.2559 50.1335 54.5469 50.1335Z" fill="#EFF6FC"/>
<path d="M54.5469 62.6907H49.0781C47.3691 62.6907 46.3438 61.3331 46.3438 59.9755V54.2058C46.3438 52.8483 47.3691 51.8301 48.7363 51.8301H54.5469C55.9141 51.8301 56.9395 52.8483 56.9395 54.2058V59.9755C57.2812 61.3331 56.2559 62.6907 54.5469 62.6907Z" fill="#EFF6FC"/>
<path d="M67.877 50.1335H62.0664C60.6992 50.1335 59.6738 49.1153 59.6738 47.7578V41.9881C59.6738 40.6305 60.6992 39.6123 62.0664 39.6123H67.877C69.2441 39.6123 70.2695 40.6305 70.2695 41.9881V47.7578C70.2695 49.1153 69.2441 50.1335 67.877 50.1335Z" fill="#EFF6FC"/>
<path d="M67.877 62.6907H62.0664C60.6992 62.6907 59.6738 61.6725 59.6738 60.3149V54.2058C59.6738 52.8483 60.6992 51.8301 62.0664 51.8301H67.877C69.2441 51.8301 70.2695 52.8483 70.2695 54.2058V59.9755C70.2695 61.3331 69.2441 62.6907 67.877 62.6907Z" fill="#EFF6FC"/>
<path d="M81.8909 62.6912L66.5101 58.6185C64.4593 57.9397 62.4085 59.9761 63.0921 62.0124L67.1937 77.2852C67.8773 79.3215 70.2698 80.0003 71.9788 78.6427L76.0804 74.57L80.5237 78.9821C81.5491 80.0003 82.9163 80.0003 83.9417 78.9821C84.9671 77.964 84.9671 76.6064 83.9417 75.5882L79.1566 71.5155L83.2581 67.4427C84.6253 66.0852 83.9417 63.37 81.8909 62.6912Z" fill="#FCBC41"/>
</g>
<defs>
<clipPath id="clip0">
<rect width="65.625" height="56" fill="white" transform="translate(19 24)"/>
</clipPath>
</defs>
</svg>
