<svg width="105" height="104" viewBox="0 0 105 104" fill="none" xmlns="http://www.w3.org/2000/svg">
<rect x="0.5" width="104" height="104" rx="12" fill="#EFF6FC"/>
<path d="M76.6247 24H48.333C45.9997 24 43.958 26.0417 43.958 28.375V64.25C43.958 66.5833 45.9997 68.625 48.333 68.625H76.6247C78.958 68.625 80.9997 66.5833 80.9997 64.25V28.375C80.9997 26.0417 78.958 24 76.6247 24Z" fill="#FCBC41"/>
<path d="M72.833 27.208H44.833C42.4997 27.208 40.458 29.2497 40.458 31.583V67.458C40.458 69.7913 42.4997 71.833 44.833 71.833H73.1247C75.458 71.833 77.4997 69.7913 77.4997 67.458V31.583C77.4997 29.2497 75.458 27.208 72.833 27.208Z" fill="#3CACD7"/>
<path d="M71.0835 32.7503L43.0835 30.417C40.4585 30.417 38.4169 32.167 38.1252 34.5003L35.2085 70.3753C34.9169 72.7087 36.9585 75.042 39.2919 75.042L67.2919 77.3753C69.6252 77.667 71.9585 75.6253 71.9585 73.292L74.8752 37.417C75.4585 35.0837 73.7085 32.7503 71.0835 32.7503Z" fill="#FCBC41"/>
<path d="M64.9587 35.083H36.667C34.3337 35.083 32.292 37.1247 32.292 39.458V75.333C32.292 77.6663 34.3337 79.708 36.667 79.708H64.9587C67.292 79.708 69.3337 77.6663 69.3337 75.333V39.7497C69.3337 37.1247 67.292 35.083 64.9587 35.083Z" fill="#3CACD7"/>
<path d="M43.0833 56.3747C44.372 56.3747 45.4167 55.33 45.4167 54.0413C45.4167 52.7527 44.372 51.708 43.0833 51.708C41.7947 51.708 40.75 52.7527 40.75 54.0413C40.75 55.33 41.7947 56.3747 43.0833 56.3747Z" fill="#EFF6FC"/>
<path d="M64.9587 79.9993H36.667C34.3337 79.9993 32.292 77.9577 32.292 75.6243V62.791L34.917 60.166C35.792 59.291 36.9587 59.291 37.8337 60.166L41.6253 63.9577L52.1253 53.166C53.0003 52.291 54.167 52.291 55.042 53.166L69.042 67.166V75.6243C69.3337 77.9577 67.292 79.9993 64.9587 79.9993Z" fill="#EFF6FC"/>
<path d="M26.7497 68.0417L37.5413 65.1251C38.9997 64.8334 40.1663 66.0001 39.8747 67.4584L36.958 78.2501C36.6663 79.7084 34.6247 80.2917 33.7497 79.1251L30.833 76.5001L27.9163 79.4167C27.333 80.0001 26.1663 80.0001 25.583 79.4167C24.9997 78.8334 24.9997 77.6667 25.583 77.0834L28.7913 73.8751L26.1663 71.2501C24.708 70.3751 25.2913 68.3334 26.7497 68.0417Z" fill="#3CACD7"/>
<path d="M37.8333 38.0003H33.75V33.6253C33.75 32.7503 33.1667 32.167 32.2917 32.167C31.4167 32.167 30.8333 33.042 30.8333 33.6253V38.0003H26.4583C25.5833 38.0003 25 38.5837 25 39.4587C25 40.3337 25.5833 40.917 26.4583 40.917H30.8333V45.292C30.8333 46.167 31.4167 46.7503 32.2917 46.7503C33.1667 46.7503 33.75 45.8753 33.75 45.0003V40.917H38.125C39 40.917 39.5833 40.3337 39.5833 39.4587C39.5833 38.5837 38.7083 38.0003 37.8333 38.0003Z" fill="#FCBC41"/>
</svg>
