<svg width="104" height="104" viewBox="0 0 104 104" fill="none" xmlns="http://www.w3.org/2000/svg">
<rect width="104" height="104" rx="12" fill="#EFF6FC"/>
<g clip-path="url(#clip0)">
<path d="M33.4989 24H68.5183C71.7019 24 74.0172 26.625 74.0172 29.5417V74.4583C74.0172 77.6667 71.4125 80 68.5183 80H33.4989C30.3153 80 28 77.375 28 74.4583V29.5417C28 26.625 30.6047 24 33.4989 24Z" fill="#3CACD7"/>
<path d="M54.0479 75.3333H46.8125C45.076 75.3333 43.6289 73.875 43.6289 72.125V64.8333C43.6289 63.0833 45.076 61.625 46.8125 61.625H54.0479C55.7844 61.625 57.2315 63.0833 57.2315 64.8333V72.125C57.2315 73.875 55.7844 75.3333 54.0479 75.3333Z" fill="#EFF6FC"/>
<path d="M50.5749 59.0007C46.8125 59.0007 43.6289 56.084 43.6289 52.2923C43.6289 48.5007 46.8125 45.584 50.2855 45.584C54.0479 45.584 56.9421 48.7923 56.9421 52.2923C57.2315 56.084 54.3373 59.0007 50.5749 59.0007Z" fill="#EFF6FC"/>
<path d="M45.0756 42.667H56.0734C56.9416 42.667 57.8099 41.5003 57.231 40.6253L51.7321 29.542C51.1533 28.667 49.7062 28.667 49.4168 29.542L43.9179 40.6253C43.3391 41.5003 44.2073 42.667 45.0756 42.667Z" fill="#EFF6FC"/>
<path d="M74.885 58.4162L61.8612 54.9162C60.1247 54.3328 58.3882 56.0828 58.9671 57.8328L62.4401 70.9578C63.0189 72.7078 65.0448 73.2912 66.4919 72.1245L69.9649 68.6245L73.7273 72.4162C74.5955 73.2912 75.7532 73.2912 76.6215 72.4162C77.4897 71.5412 77.4897 70.3745 76.6215 69.4995L72.859 65.7078L76.332 62.2078C77.2003 61.0412 76.6215 58.7078 74.885 58.4162Z" fill="#FCBC41"/>
</g>
<defs>
<clipPath id="clip0">
<rect width="48.9114" height="56" fill="white" transform="translate(28 24)"/>
</clipPath>
</defs>
</svg>
