<svg width="105" height="104" viewBox="0 0 105 104" fill="none" xmlns="http://www.w3.org/2000/svg">
<rect x="0.5" width="104" height="104" rx="12" fill="#EFF6FC"/>
<g clip-path="url(#clip0)">
<path d="M63.5356 31.4667C63.2871 31.4667 63.0387 31.4667 62.7902 31.4667C61.2995 27.2356 57.3242 24 52.6035 24C47.1374 24 42.6652 28.2311 42.1683 33.4578C41.9198 33.4578 41.6714 33.4578 41.4229 33.4578C38.193 33.4578 35.46 36.1956 35.46 39.4311C35.46 42.6667 37.9445 45.4044 41.4229 45.4044H63.5356C67.2624 45.4044 70.4924 42.4178 70.4924 38.4356C70.4924 34.4533 67.2624 31.4667 63.5356 31.4667Z" fill="#3CACD7"/>
<path d="M71.9827 79.2534L55.3361 77.76C53.8454 77.76 52.8516 76.2667 52.8516 74.7733L54.5908 53.6178C54.5908 52.1245 56.0815 51.1289 57.5722 51.1289L74.2188 52.6222C75.7096 52.6222 76.7034 54.1156 76.7034 55.6089L74.9642 76.7645C74.7158 78.5067 73.4735 79.5022 71.9827 79.2534Z" fill="#3CACD7"/>
<path d="M69.7468 79.005H53.1002C51.6095 79.005 50.3672 77.7606 50.3672 76.2672V54.8628C50.3672 53.3694 51.6095 52.125 53.1002 52.125H69.7468C71.2376 52.125 72.4798 53.3694 72.4798 54.8628V76.2672C72.4798 77.7606 71.2376 79.005 69.7468 79.005Z" fill="#FCBC41"/>
<path d="M63.2869 80.0002H46.6403C45.1495 80.0002 43.9072 78.7558 43.9072 77.5114V56.1069C43.9072 54.6136 45.1495 53.3691 46.6403 53.3691H63.2869C64.7776 53.3691 66.0199 54.6136 66.0199 56.1069V77.5114C66.0199 78.7558 64.7776 80.0002 63.2869 80.0002Z" fill="#3CACD7"/>
<path d="M59.3116 77.0129L42.665 79.004C41.1743 79.2529 39.932 78.0085 39.6835 76.764L37.199 55.6084C36.9505 54.1151 38.1928 52.8707 39.4351 52.6218L56.0817 50.6307C57.5724 50.3818 58.8147 51.6262 59.0632 52.8707L61.5477 74.0262C61.7962 75.5196 60.5539 76.764 59.3116 77.0129Z" fill="#FCBC41"/>
<path d="M49.8704 80.0002H31.733C30.2423 80.0002 29 78.7557 29 77.2624V54.3646C29 52.6224 30.2423 51.3779 31.733 51.3779H49.6219C51.1127 51.3779 52.3549 52.6224 52.3549 54.1157V77.0135C52.6034 78.7557 51.3611 80.0002 49.8704 80.0002Z" fill="#3CACD7"/>
<path d="M48.131 64.8176H33.7205C32.4782 64.8176 31.4844 63.822 31.4844 62.5776V56.6043C31.4844 55.3598 32.4782 54.3643 33.7205 54.3643H48.131C49.3733 54.3643 50.3671 55.3598 50.3671 56.6043V62.5776C50.3671 63.822 49.3733 64.8176 48.131 64.8176Z" fill="#EFF6FC"/>
<path d="M45.3985 47.6447H43.9078V41.9202C43.9078 41.1736 43.4109 40.6758 42.6655 40.6758C41.9201 40.6758 41.4232 41.1736 41.4232 41.9202V47.6447H39.9325C39.1871 47.6447 38.6902 48.3913 38.9387 48.8891L41.9201 53.8669C42.1686 54.6136 43.1624 54.6136 43.6593 53.8669L46.1439 48.8891C46.6408 48.3913 46.1439 47.6447 45.3985 47.6447Z" fill="#FCBC41"/>
</g>
<defs>
<clipPath id="clip0">
<rect width="47.7037" height="56" fill="white" transform="translate(29 24)"/>
</clipPath>
</defs>
</svg>
